<svg xmlns="http://www.w3.org/2000/svg" viewBox="0 0 200 240" fill="none">
  <defs>
    <linearGradient id="shieldBg" x1="0" x2="0" y1="0" y2="1">
      <stop offset="0" stop-color="#f5f1e8"/>
      <stop offset="1" stop-color="#ede6d3"/>
    </linearGradient>
  </defs>
  <path d="M100 12 L180 36 V120 Q180 180 100 228 Q20 180 20 120 V36 Z"
        fill="url(#shieldBg)" stroke="#3b2e22" stroke-width="2.5"/>
  <path d="M100 24 L168 44 V120 Q168 172 100 214 Q32 172 32 120 V44 Z"
        fill="none" stroke="#a88a4a" stroke-width="1"/>
  <!-- beech leaves crossed -->
  <g stroke="#4a5d3a" stroke-width="2" fill="#4a5d3a" opacity="0.9">
    <path d="M70 90 Q100 60 130 90 Q100 130 70 90 Z"/>
    <path d="M100 70 V128" stroke="#3b2e22"/>
  </g>
  <!-- gate motif -->
  <g stroke="#3b2e22" stroke-width="2.5" fill="none">
    <line x1="70" y1="150" x2="70" y2="190"/>
    <line x1="90" y1="150" x2="90" y2="190"/>
    <line x1="110" y1="150" x2="110" y2="190"/>
    <line x1="130" y1="150" x2="130" y2="190"/>
    <line x1="60" y1="160" x2="140" y2="160"/>
    <line x1="60" y1="180" x2="140" y2="180"/>
  </g>
  <!-- banner -->
  <path d="M40 200 Q100 220 160 200 L155 212 Q100 228 45 212 Z"
        fill="#a88a4a" stroke="#3b2e22" stroke-width="1.5"/>
  <text x="100" y="213" text-anchor="middle" font-family="Georgia, serif"
        font-size="10" font-style="italic" fill="#f5f1e8" letter-spacing="2">NON OMNIBVS</text>
</svg>
