<svg xmlns="http://www.w3.org/2000/svg" viewBox="0 0 160 210">
  <!-- beech leaf, drawn for the dark "rentmeesterschap" band -->
  <path d="M80 8C42 44 20 100 80 202C140 100 118 44 80 8Z"
        fill="#b3903f" fill-opacity=".12" stroke="#b3903f" stroke-width="1.8"
        stroke-linejoin="round"/>
  <path d="M80 22V196" stroke="#b3903f" stroke-width="1.6" stroke-linecap="round"/>
  <g fill="none" stroke="#8fa87d" stroke-width="1.3" stroke-linecap="round">
    <path d="M80 62C68 56 60 48 54 40"/>
    <path d="M80 96C66 88 54 78 46 66"/>
    <path d="M80 130C66 122 54 112 46 100"/>
    <path d="M80 162C70 154 60 144 54 134"/>
    <path d="M80 62C92 56 100 48 106 40"/>
    <path d="M80 96C94 88 106 78 114 66"/>
    <path d="M80 130C94 122 106 112 114 100"/>
    <path d="M80 162C90 154 100 144 106 134"/>
  </g>
</svg>
